ffmpeg started on 2016-12-01 at 05:00:36
Report written to "Output/x264/results/ffmpeg/old_town_cross_2160p50medium5000k.log"
Command line:
Tools/ffmpeg/ffmpeg -benchmark -y -i Input/y4m/old_town_cross_2160p50.y4m -c:v libx264 -preset medium -b:v 5000k -an Output/x264/encoded/old_town_cross_2160p50medium5000k.mkv
ffmpeg version N-82227-gdb23fde Copyright (c) 2000-2016 the FFmpeg developers
  built with gcc 5.4.0 (Ubuntu 5.4.0-6ubuntu1~16.04.2) 20160609
  configuration: --prefix=/home/jaroslav/ffmpeg_build --pkg-config-flags=--static --extra-cflags=-I/home/jaroslav/ffmpeg_build/include --extra-ldflags=-L/home/jaroslav/ffmpeg_build/lib --bindir=/home/jaroslav/bin --enable-gpl --enable-libass --enable-libfdk-aac --enable-libfreetype --enable-libmp3lame --enable-libopus --enable-libtheora --enable-libvorbis --enable-libvpx --enable-libx264 --enable-libx265 --enable-nvenc --enable-libmfx --enable-libxvid --enable-libgsm --enable-libopencore-amrnb --enable-version3 --enable-nonfree
  libavutil      55. 35.100 / 55. 35.100
  libavcodec     57. 66.101 / 57. 66.101
  libavformat    57. 57.100 / 57. 57.100
  libavdevice    57.  2.100 / 57.  2.100
  libavfilter     6. 66.100 /  6. 66.100
  libswscale      4.  3.100 /  4.  3.100
  libswresample   2.  4.100 /  2.  4.100
  libpostproc    54.  2.100 / 54.  2.100
Input #0, yuv4mpegpipe, from 'Input/y4m/old_town_cross_2160p50.y4m':
  Duration: 00:00:10.00, start: 0.000000, bitrate: 4976642 kb/s
    Stream #0:0: Video: rawvideo (I420 / 0x30323449), yuv420p(progressive), 3840x2160, SAR 1:1 DAR 16:9, 50 fps, 50 tbr, 50 tbn, 50 tbc
[libx264 @ 0x2d76120] using SAR=1/1
[libx264 @ 0x2d76120] using cpu capabilities: MMX2 SSE2Fast SSSE3 SSE4.2 AVX FMA3 AVX2 LZCNT BMI2
[libx264 @ 0x2d76120] profile High, level 5.2
[libx264 @ 0x2d76120] 264 - core 148 - H.264/MPEG-4 AVC codec - Copyleft 2003-2016 - http://www.videolan.org/x264.html - options: cabac=1 ref=3 deblock=1:0:0 analyse=0x3:0x113 me=hex subme=7 psy=1 psy_rd=1.00:0.00 mixed_ref=1 me_range=16 chroma_me=1 trellis=1 8x8dct=1 cqm=0 deadzone=21,11 fast_pskip=1 chroma_qp_offset=-2 threads=6 lookahead_threads=1 sliced_threads=0 nr=0 decimate=1 interlaced=0 bluray_compat=0 constrained_intra=0 bframes=3 b_pyramid=2 b_adapt=1 b_bias=0 direct=1 weightb=1 open_gop=0 weightp=2 keyint=250 keyint_min=25 scenecut=40 intra_refresh=0 rc_lookahead=40 rc=abr mbtree=1 bitrate=5000 ratetol=1.0 qcomp=0.60 qpmin=0 qpmax=69 qpstep=4 ip_ratio=1.40 aq=1:1.00
Output #0, matroska, to 'Output/x264/encoded/old_town_cross_2160p50medium5000k.mkv':
  Metadata:
    encoder         : Lavf57.57.100
    Stream #0:0: Video: h264 (libx264) (H264 / 0x34363248), yuv420p, 3840x2160 [SAR 1:1 DAR 16:9], q=-1--1, 5000 kb/s, 50 fps, 1k tbn, 50 tbc
    Metadata:
      encoder         : Lavc57.66.101 libx264
    Side data:
      cpb: bitrate max/min/avg: 0/0/5000000 buffer size: 0 vbv_delay: -1
Stream mapping:
  Stream #0:0 -> #0:0 (rawvideo (native) -> h264 (libx264))
Press [q] to stop, [?] for help
frame=   47 fps= 18 q=0.0 size=       0kB time=00:00:00.00 bitrate=N/A speed=   0x    frame=   56 fps= 18 q=44.0 size=       1kB time=00:00:00.06 bitrate=  96.3kbits/s speed=0.0199x    frame=   65 fps= 18 q=44.0 size=       1kB time=00:00:00.24 bitrate=  24.4kbits/s speed=0.0675x    frame=   74 fps= 18 q=41.0 size=       1kB time=00:00:00.42 bitrate=  13.9kbits/s speed=0.102x    frame=   82 fps= 17 q=40.0 size=       1kB time=00:00:00.58 bitrate=  10.1kbits/s speed=0.122x    frame=   91 fps= 17 q=39.0 size=       1kB time=00:00:00.76 bitrate=   7.7kbits/s speed=0.144x    frame=   98 fps= 17 q=39.0 size=       1kB time=00:00:00.90 bitrate=   6.5kbits/s speed=0.154x    frame=  105 fps= 16 q=38.0 size=       1kB time=00:00:01.04 bitrate=   5.6kbits/s speed=0.163x    frame=  114 fps= 16 q=38.0 size=       1kB time=00:00:01.22 bitrate=   4.8kbits/s speed=0.174x    frame=  122 fps= 16 q=38.0 size=       1kB time=00:00:01.38 bitrate=   4.3kbits/s speed=0.182x    frame=  131 fps= 16 q=38.0 size=       1kB time=00:00:01.56 bitrate=   3.8kbits/s speed=0.191x    frame=  139 fps= 16 q=38.0 size=       1kB time=00:00:01.72 bitrate=   3.4kbits/s speed=0.196x    frame=  147 fps= 16 q=38.0 size=       1kB time=00:00:01.88 bitrate=   3.1kbits/s speed=0.201x    frame=  156 fps= 16 q=38.0 size=       1kB time=00:00:02.06 bitrate=   2.8kbits/s speed=0.205x    frame=  164 fps= 16 q=38.0 size=       1kB time=00:00:02.22 bitrate=   2.6kbits/s speed=0.21x    frame=  170 fps= 15 q=37.0 size=       1kB time=00:00:02.34 bitrate=   2.5kbits/s speed=0.212x    frame=  178 fps= 15 q=37.0 size=       1kB time=00:00:02.50 bitrate=   2.3kbits/s speed=0.216x    frame=  186 fps= 15 q=37.0 size=       1kB time=00:00:02.66 bitrate=   2.2kbits/s speed=0.218x    frame=  194 fps= 15 q=37.0 size=       1kB time=00:00:02.82 bitrate=   2.1kbits/s speed=0.221x    frame=  202 fps= 15 q=37.0 size=       1kB time=00:00:02.98 bitrate=   2.0kbits/s speed=0.224x    frame=  210 fps= 15 q=37.0 size=       1kB time=00:00:03.14 bitrate=   1.9kbits/s speed=0.226x    frame=  218 fps= 15 q=37.0 size=       1kB time=00:00:03.30 bitrate=   1.8kbits/s speed=0.227x    frame=  226 fps= 15 q=37.0 size=       1kB time=00:00:03.46 bitrate=   1.7kbits/s speed=0.23x    frame=  234 fps= 15 q=37.0 size=       1kB time=00:00:03.62 bitrate=   1.6kbits/s speed=0.232x    frame=  242 fps= 15 q=37.0 size=       1kB time=00:00:03.78 bitrate=   1.6kbits/s speed=0.233x    frame=  250 fps= 15 q=37.0 size=       1kB time=00:00:03.94 bitrate=   1.5kbits/s speed=0.234x    frame=  258 fps= 15 q=37.0 size=       1kB time=00:00:04.10 bitrate=   1.4kbits/s speed=0.236x    frame=  262 fps= 14 q=37.0 size=       1kB time=00:00:04.18 bitrate=   1.4kbits/s speed=0.225x    frame=  263 fps= 14 q=37.0 size=       1kB time=00:00:04.20 bitrate=   1.4kbits/s speed=0.219x    frame=  265 fps= 13 q=37.0 size=       1kB time=00:00:04.24 bitrate=   1.4kbits/s speed=0.213x    frame=  270 fps= 13 q=37.0 size=       1kB time=00:00:04.34 bitrate=   1.4kbits/s speed=0.211x    frame=  275 fps= 13 q=37.0 size=       1kB time=00:00:04.44 bitrate=   1.3kbits/s speed=0.21x    frame=  280 fps= 13 q=37.0 size=       1kB time=00:00:04.54 bitrate=   1.3kbits/s speed=0.209x    frame=  285 fps= 13 q=37.0 size=       1kB time=00:00:04.64 bitrate=   1.3kbits/s speed=0.208x    frame=  290 fps= 13 q=37.0 size=       1kB time=00:00:04.74 bitrate=   1.2kbits/s speed=0.206x    frame=  295 fps= 13 q=34.0 size=       1kB time=00:00:04.84 bitrate=   1.2kbits/s speed=0.205x    frame=  303 fps= 13 q=38.0 size=    2784kB time=00:00:05.00 bitrate=4561.0kbits/s speed=0.207x    frame=  311 fps= 13 q=38.0 size=    2784kB time=00:00:05.16 bitrate=4419.6kbits/s speed=0.208x    frame=  319 fps= 13 q=38.0 size=    2784kB time=00:00:05.32 bitrate=4286.7kbits/s speed=0.209x    frame=  327 fps= 13 q=38.0 size=    2784kB time=00:00:05.48 bitrate=4161.6kbits/s speed=0.211x    frame=  335 fps= 13 q=38.0 size=    2784kB time=00:00:05.64 bitrate=4043.5kbits/s speed=0.212x    frame=  343 fps= 13 q=37.0 size=    2784kB time=00:00:05.80 bitrate=3932.0kbits/s speed=0.214x    frame=  352 fps= 13 q=37.0 size=    2784kB time=00:00:05.98 bitrate=3813.7kbits/s speed=0.216x    frame=  359 fps= 13 q=37.0 size=    2784kB time=00:00:06.12 bitrate=3726.4kbits/s speed=0.217x    frame=  365 fps= 13 q=37.0 size=    2784kB time=00:00:06.24 bitrate=3654.8kbits/s speed=0.217x    frame=  373 fps= 13 q=37.0 size=    2784kB time=00:00:06.40 bitrate=3563.4kbits/s speed=0.218x    frame=  381 fps= 13 q=37.0 size=    2784kB time=00:00:06.56 bitrate=3476.5kbits/s speed=0.219x    frame=  388 fps= 13 q=37.0 size=    2784kB time=00:00:06.70 bitrate=3403.9kbits/s speed=0.219x    frame=  396 fps= 13 q=38.0 size=    2784kB time=00:00:06.86 bitrate=3324.5kbits/s speed=0.22x    frame=  404 fps= 13 q=38.0 size=    2784kB time=00:00:07.02 bitrate=3248.8kbits/s speed=0.222x    frame=  411 fps= 13 q=38.0 size=    2784kB time=00:00:07.16 bitrate=3185.2kbits/s speed=0.222x    frame=  420 fps= 13 q=38.0 size=    2784kB time=00:00:07.34 bitrate=3107.1kbits/s speed=0.223x    frame=  427 fps= 13 q=38.0 size=    2784kB time=00:00:07.48 bitrate=3049.0kbits/s speed=0.223x    frame=  435 fps= 13 q=38.0 size=    2784kB time=00:00:07.64 bitrate=2985.1kbits/s speed=0.224x    frame=  443 fps= 13 q=38.0 size=    2784kB time=00:00:07.80 bitrate=2923.9kbits/s speed=0.224x    frame=  451 fps= 13 q=38.0 size=    2784kB time=00:00:07.96 bitrate=2865.2kbits/s speed=0.225x    frame=  460 fps= 13 q=38.0 size=    2784kB time=00:00:08.14 bitrate=2801.8kbits/s speed=0.227x    frame=  467 fps= 13 q=38.0 size=    2784kB time=00:00:08.28 bitrate=2754.4kbits/s speed=0.226x    frame=  475 fps= 13 q=38.0 size=    2784kB time=00:00:08.44 bitrate=2702.2kbits/s speed=0.227x    frame=  484 fps= 13 q=38.0 size=    2784kB time=00:00:08.62 bitrate=2645.8kbits/s speed=0.229x    frame=  493 fps= 13 q=38.0 size=    2784kB time=00:00:08.80 bitrate=2591.7kbits/s speed=0.229x    frame=  499 fps= 13 q=38.0 size=    2784kB time=00:00:08.92 bitrate=2556.8kbits/s speed=0.229x    frame=  500 fps= 12 q=-1.0 Lsize=    6083kB time=00:00:09.94 bitrate=5012.6kbits/s speed=0.231x    
video:6078kB audio:0kB subtitle:0kB other streams:0kB global headers:0kB muxing overhead: 0.071590%
bench: utime=141.676s
bench: maxrss=1923440kB
[libx264 @ 0x2d76120] frame I:3     Avg QP:34.10  size:161293
[libx264 @ 0x2d76120] frame P:183   Avg QP:35.80  size: 15133
[libx264 @ 0x2d76120] frame B:314   Avg QP:37.44  size:  9460
[libx264 @ 0x2d76120] consecutive B-frames: 16.0%  0.8%  0.0% 83.2%
[libx264 @ 0x2d76120] mb I  I16..4: 17.1% 70.5% 12.4%
[libx264 @ 0x2d76120] mb P  I16..4:  0.1%  0.0%  0.0%  P16..4: 18.2%  0.7%  0.5%  0.0%  0.0%    skip:80.4%
[libx264 @ 0x2d76120] mb B  I16..4:  0.0%  0.0%  0.0%  B16..8: 29.4%  0.1%  0.0%  direct: 0.0%  skip:70.5%  L0:44.0% L1:56.0% BI: 0.0%
[libx264 @ 0x2d76120] final ratefactor: 29.80
[libx264 @ 0x2d76120] 8x8 transform intra:65.8% inter:96.2%
[libx264 @ 0x2d76120] coded y,uvDC,uvAC intra: 39.4% 44.2% 18.1% inter: 2.3% 1.9% 0.0%
[libx264 @ 0x2d76120] i16 v,h,dc,p: 31% 50%  7% 12%
[libx264 @ 0x2d76120] i8 v,h,dc,ddl,ddr,vr,hd,vl,hu: 24% 21% 28%  3%  4%  4%  7%  3%  5%
[libx264 @ 0x2d76120] i4 v,h,dc,ddl,ddr,vr,hd,vl,hu: 25% 32% 10%  6%  6%  5%  8%  4%  5%
[libx264 @ 0x2d76120] i8c dc,h,v,p: 76% 12% 10%  2%
[libx264 @ 0x2d76120] Weighted P-Frames: Y:0.5% UV:0.0%
[libx264 @ 0x2d76120] ref P L0: 60.7% 31.5%  6.6%  1.2%  0.0%
[libx264 @ 0x2d76120] ref B L0: 93.1%  6.3%  0.6%
[libx264 @ 0x2d76120] ref B L1: 98.1%  1.9%
[libx264 @ 0x2d76120] kb/s:4978.92
